<svg width="512" height="512" viewBox="0 0 512 512" fill="none" xmlns="http://www.w3.org/2000/svg">
<path d="M322.31 236.945C307.136 236.945 294.558 232.356 284.575 223.178C274.992 213.602 270.201 201.83 270.201 187.864C270.201 173.898 274.992 162.326 284.575 153.148C294.558 143.571 307.136 138.783 322.31 138.783C337.084 138.783 349.263 143.571 358.846 153.148C368.43 162.326 373.221 173.898 373.221 187.864C373.221 201.83 368.43 213.602 358.846 223.178C349.263 232.356 337.084 236.945 322.31 236.945Z" fill="black"/>
<path d="M181.854 61.2709C192.635 46.1076 207.41 33.5381 226.177 23.5623C245.344 13.1874 267.106 8 291.464 8C319.814 8 345.37 14.9831 368.13 28.9492C391.29 42.9154 409.458 62.867 422.635 88.8041C436.212 114.342 443 144.07 443 177.988C443 211.906 436.212 242.033 422.635 268.369C409.458 294.306 391.29 314.457 368.13 328.822C345.37 343.187 319.814 350.37 291.464 350.37C267.106 350.37 245.543 345.382 226.776 335.406C208.408 325.43 193.434 312.861 181.854 297.698V503H98V13.3869H181.854V61.2709ZM357.349 177.988C357.349 158.036 353.156 140.878 344.771 126.513C336.785 111.748 326.003 100.576 312.427 92.9939C299.25 85.4123 284.875 81.6215 269.302 81.6215C254.128 81.6215 239.753 85.6119 226.177 93.5925C213 101.174 202.219 112.347 193.833 127.111C185.847 141.875 181.854 159.233 181.854 179.185C181.854 199.137 185.847 216.495 193.833 231.259C202.219 246.023 213 257.395 226.177 265.376C239.753 272.958 254.128 276.748 269.302 276.748C284.875 276.748 299.25 272.758 312.427 264.778C326.003 256.797 336.785 245.424 344.771 230.66C353.156 215.896 357.349 198.339 357.349 177.988Z" fill="black"/>
</svg>
